<svg xmlns="http://www.w3.org/2000/svg" viewBox="0 0 314.25 314.25"><defs><style>.cls-1{fill:#c9283e;}.cls-1,.cls-2{stroke:#a155ff;stroke-miterlimit:10;stroke-width:0.25px;}.cls-2,.cls-3{fill:#fff;}</style></defs><title>kanjeaRecurso 2</title><g id="Capa_2" data-name="Capa 2"><g id="Capa_1-2" data-name="Capa 1"><circle class="cls-1" cx="157.13" cy="157.13" r="157"/><path class="cls-2" d="M236.58,248.19q0,6.54-4,6.54h-32q-4.05,0-21-29.64Q165.2,200,160.47,188.91q-4.72-10.71-5.42-12-4.19-6.94-9.74-7.37-1.68-.13-9.33-.14-17.52,0-17.53,4.31,0,12.81.91,38.27t.9,38.12q0,4.6-3.48,4.6c-1.76,0-4.41-.14-7.93-.42s-6.17-.42-7.93-.42-4.15.14-7.44.42-5.78.42-7.45.42q-3.48,0-3.48-3.2,0-15.32,1.46-46t1.46-46q0-16.14-1.46-48.49T82.55,62.57q0-3.06,3.48-3.06,2.5,0,7.65.41t7.8.42q2.51,0,7.51-.42t7.51-.41c2.14,0,3.2.83,3.2,2.5q0,11.84-.76,35.62t-.77,35.76q0,5.43.7,6.82,1.11,2.5,5.7,2.51,27,0,39.52-10,10.71-8.91,20.32-32.7,6.94-18.65,13.91-37.29,1-2.37,4.31-3.2,2.24-.55,14.75-.56,15.31,0,15.31,4.31,0,2.51-6.4,22.55A162.57,162.57,0,0,1,206.81,127a135.92,135.92,0,0,1-21,24.35q-3.35,2.92-3.34,5.29t11.27,24.91a285.05,285.05,0,0,0,17.67,31q8.76,10.71,24.49,33A5.43,5.43,0,0,1,236.58,248.19Z"/><circle class="cls-3" cx="212.9" cy="78.76" r="30.63"/><circle class="cls-3" cx="211.47" cy="235.49" r="30.63"/><circle class="cls-3" cx="103.18" cy="161.4" r="32.06"/></g></g></svg>